<?xml version="1.0" encoding="UTF-8" standalone="no"?>
<!DOCTYPE svg PUBLIC "-//W3C//DTD SVG 1.1//EN" "http://www.w3.org/Graphics/SVG/1.1/DTD/svg11.dtd">
<svg width="100%" height="100%" viewBox="0 0 512 192" version="1.1" xmlns="http://www.w3.org/2000/svg" xmlns:xlink="http://www.w3.org/1999/xlink" xml:space="preserve" xmlns:serif="http://www.serif.com/" style="fill-rule:evenodd;clip-rule:evenodd;stroke-linejoin:round;stroke-miterlimit:1.41421;">
    <g transform="matrix(0.241405,0,0,0.232489,-2,3.00484)">
        <path d="M800,266.675L1066.67,266.675L1066.67,266.662L1600,266.663L1600,533.329L1333.33,533.329L1333.33,533.325L1066.67,533.325L1066.67,533.338L799.996,533.338L799.996,533.329L533.333,533.329L533.333,266.658L800,266.658L800,266.675ZM2133.33,533.333L1866.67,533.333L1866.67,266.667L2133.33,266.667L2133.33,533.333ZM266.671,266.667L533.333,266.667L533.333,533.329L266.671,533.329L266.671,533.325L0,533.325L0,266.662L266.671,266.662L266.671,266.667ZM1866.66,533.329L1600,533.329L1600,266.663L1866.66,266.663L1866.66,533.329Z" style="fill:rgb(68,34,34);"/>
    </g>
    <g transform="matrix(0.241404,0,0,0.232489,-1.99799,5.00775)">
        <path d="M266.662,799.992L-0.008,799.992L-0.008,533.333L533.325,533.333L533.325,533.325L799.992,533.325L799.992,533.342L1066.66,533.342L1066.66,533.333L1333.32,533.333L1333.32,533.329L1866.65,533.329L1866.65,799.996L1333.32,799.996L1333.32,799.992L1066.66,799.992L1066.66,800.004L799.983,800.004L799.983,799.996L266.662,799.996L266.662,799.992ZM2133.33,800L1866.67,800L1866.67,533.333L2133.33,533.333L2133.33,800Z" style="fill:rgb(34,51,62);"/>
    </g>
    <g transform="matrix(1.03124,0,0,0.968705,-2,-122.996)">
        <rect x="0" y="128.002" width="64.001" height="63.999" style="fill:rgb(37,166,223);"/>
    </g>
    <g transform="matrix(0.999995,0,0,0.999995,15.745,46.4467)">
        <path d="M0,-28.399C0,-28.399 5.798,-20.714 15.874,-20.183C15.874,-20.183 14.51,-24.722 18.693,-28.194C22.877,-31.67 28.053,-28.727 29.045,-27.416C29.045,-27.416 31.988,-27.877 34.043,-29.258C34.043,-29.258 33.371,-26.605 30.889,-25.007C30.889,-25.007 33.795,-25.394 35.143,-26.174C35.143,-26.174 33.725,-23.906 31.279,-22.169C31.279,-22.169 32.307,-12.579 24.064,-4.655C15.821,3.271 2.26,1.621 -2.632,-2.526C-2.632,-2.526 4.015,-1.782 8.694,-5.772C8.694,-5.772 3.164,-5.878 1.57,-11.038C1.57,-11.038 4.334,-10.823 4.813,-11.354C4.813,-11.354 -1.143,-12.792 -1.195,-19.013C-1.195,-19.013 0.612,-18.109 2.26,-18.055C2.26,-18.055 -3.482,-22.204 0,-28.399" style="fill:white;fill-rule:nonzero;"/>
    </g>
    <g transform="matrix(0.999995,0,0,0.999995,15.745,110.445)">
        <path d="M0,-28.399C0,-28.399 5.798,-20.713 15.874,-20.182C15.874,-20.182 14.51,-24.721 18.693,-28.194C22.877,-31.67 28.053,-28.727 29.045,-27.415C29.045,-27.415 31.988,-27.876 34.043,-29.258C34.043,-29.258 33.371,-26.604 30.889,-25.006C30.889,-25.006 33.795,-25.393 35.143,-26.174C35.143,-26.174 33.725,-23.905 31.279,-22.169C31.279,-22.169 32.307,-12.579 24.064,-4.655C15.821,3.271 2.26,1.621 -2.632,-2.526C-2.632,-2.526 4.015,-1.782 8.694,-5.772C8.694,-5.772 3.164,-5.878 1.57,-11.038C1.57,-11.038 4.334,-10.823 4.813,-11.354C4.813,-11.354 -1.143,-12.792 -1.195,-19.012C-1.195,-19.012 0.612,-18.108 2.26,-18.055C2.26,-18.055 -3.482,-22.204 0,-28.399" style="fill:rgb(204,170,170);fill-rule:nonzero;"/>
    </g>
    <g transform="matrix(-0.999995,0,0,0.968705,192,-122.993)">
        <rect x="64.001" y="128" width="63.999" height="64" style="fill:rgb(57,88,152);"/>
    </g>
    <g transform="matrix(0.999995,0,0,0.999995,86.3911,36.5436)">
        <path d="M0,-9.494L5.691,-9.494L5.691,-14.768C5.691,-14.768 5.451,-18.216 8.068,-20.832C10.684,-23.448 14.205,-23.199 19.219,-22.764L19.219,-16.876L15.512,-16.876C15.512,-16.876 13.955,-16.908 13.223,-16.067C12.492,-15.225 12.57,-14.026 12.57,-13.73L12.57,-9.494L19,-9.494L18.176,-2.936L12.537,-2.936L12.537,13.954L5.715,13.954L5.715,-2.969L0,-2.969L0,-9.494Z" style="fill:white;fill-rule:nonzero;"/>
    </g>
    <g transform="matrix(-0.999995,0,0,0.968705,447.997,-122.99)">
        <rect x="191.999" y="127.999" width="64.001" height="63.999" style="fill:rgb(12,120,182);"/>
    </g>
    <g transform="matrix(0.999995,0,0,0.999995,216.745,21.4564)">
        <path d="M0,0.001C0,1.854 -1.5,3.353 -3.352,3.353C-5.203,3.353 -6.703,1.854 -6.703,0.001C-6.703,-1.851 -5.203,-3.352 -3.352,-3.352C-1.5,-3.352 0,-1.851 0,0.001" style="fill:white;fill-rule:nonzero;"/>
    </g>
    <g transform="matrix(-0.999995,0,0,0.999995,426.741,-118.761)">
        <rect x="210.477" y="146.098" width="5.789" height="18.567" style="fill:white;"/>
    </g>
    <g transform="matrix(0.999995,0,0,0.999995,219.893,26.1448)">
        <path d="M0,19.758L5.766,19.758L5.766,10.178C5.766,10.178 5.551,5.846 9.016,5.846C12.48,5.846 12.238,9.121 12.238,10.203L12.238,19.758L18.055,19.758L18.055,9.691C18.055,9.691 18.406,2.38 14.133,1.191C9.855,0 7.039,1.38 5.551,3.817L5.551,1.191L0,1.191L0,19.758Z" style="fill:white;fill-rule:nonzero;"/>
    </g>
    <g transform="matrix(-0.999995,0,0,0.968705,575.996,-122.996)">
        <rect x="256" y="128.002" width="63.999" height="63.999" style="fill:rgb(222,222,221);"/>
    </g>
    <g transform="matrix(0.999995,0,0,0.999995,306.415,31.6002)">
        <path d="M0,0.799C0,-9.373 -8.247,-17.62 -18.419,-17.62C-28.588,-17.62 -36.839,-9.373 -36.839,0.799C-36.839,9.099 -31.347,16.116 -23.802,18.419L-23.774,18.382C-23.774,18.382 -23.166,18.382 -22.938,17.85L-22.938,14.198C-22.938,14.198 -25.423,14.579 -26.563,14.149C-27.704,13.718 -28.515,13.084 -29.376,10.982C-30.239,8.877 -31.608,9.257 -31.759,8.496C-31.911,7.736 -30.29,8.066 -29.733,8.395C-29.173,8.724 -28.741,9.232 -28.286,9.788C-27.829,10.346 -27.198,11.919 -25.017,11.919C-25.017,11.919 -24.002,12.096 -23.521,11.868C-23.04,11.64 -22.837,11.513 -22.71,11.487C-22.71,11.487 -22.964,9.967 -21.747,8.903C-21.747,8.903 -29.705,8.776 -30.011,0.613C-30.011,0.613 -30.062,-2.834 -28.032,-4.912C-28.032,-4.912 -28.792,-7.414 -27.981,-9.712C-27.981,-9.712 -25.514,-10.015 -22.948,-7.785C-22.948,-7.785 -21.188,-8.528 -18.485,-8.528C-15.78,-8.528 -13.652,-7.751 -13.652,-7.751C-13.652,-7.751 -12.031,-9.373 -8.755,-9.745C-8.755,-9.745 -7.941,-7.886 -8.617,-5.013C-8.617,-5.013 -6.691,-3.188 -6.691,0.191C-6.691,3.57 -7.84,8.268 -15.005,8.843C-15.005,8.843 -13.789,10.466 -13.789,11.885C-13.789,13.304 -13.855,17.36 -13.855,17.36C-13.855,17.36 -13.859,18.14 -12.98,18.403C-5.461,16.083 0,9.08 0,0.799" style="fill:white;fill-rule:nonzero;"/>
    </g>
    <g transform="matrix(-0.999995,0,0,0.968705,703.994,-122.995)">
        <rect x="319.999" y="128.001" width="64" height="64" style="fill:rgb(242,103,33);"/>
    </g>
    <g transform="matrix(0.999995,0,0,0.999995,349.404,14.5891)">
        <path d="M0,34.822L0,20.589L-10.903,0L-5.836,0L-0.974,9.843C0.359,12.453 1.382,14.552 2.458,16.958L2.56,16.958C3.531,14.706 4.708,12.453 6.04,9.843L11.004,0L15.566,0L4.504,20.841L4.504,34.822L0,34.822Z" style="fill:white;fill-rule:nonzero;"/>
    </g>
    <g transform="matrix(0.999995,0,0,0.999995,86.3911,100.542)">
        <path d="M0,-9.494L5.691,-9.494L5.691,-14.768C5.691,-14.768 5.451,-18.216 8.068,-20.832C10.684,-23.448 14.205,-23.199 19.219,-22.764L19.219,-16.876L15.512,-16.876C15.512,-16.876 13.955,-16.908 13.223,-16.067C12.492,-15.225 12.57,-14.026 12.57,-13.73L12.57,-9.494L19,-9.494L18.176,-2.936L12.537,-2.936L12.537,13.954L5.715,13.954L5.715,-2.969L0,-2.969L0,-9.494Z" style="fill:rgb(204,170,170);fill-rule:nonzero;"/>
    </g>
    <g transform="matrix(0.999995,0,0,0.999995,216.745,85.4547)">
        <path d="M0,0.002C0,1.854 -1.5,3.354 -3.352,3.354C-5.203,3.354 -6.703,1.854 -6.703,0.002C-6.703,-1.85 -5.203,-3.352 -3.352,-3.352C-1.5,-3.352 0,-1.85 0,0.002" style="fill:rgb(204,170,170);fill-rule:nonzero;"/>
    </g>
    <g transform="matrix(-0.999995,0,0,0.999995,426.741,9.23495)">
        <rect x="210.477" y="82.099" width="5.789" height="18.568" style="fill:rgb(204,170,170);"/>
    </g>
    <g transform="matrix(0.999995,0,0,0.999995,219.893,90.1439)">
        <path d="M0,19.758L5.766,19.758L5.766,10.178C5.766,10.178 5.551,5.846 9.016,5.846C12.48,5.846 12.238,9.121 12.238,10.203L12.238,19.758L18.055,19.758L18.055,9.69C18.055,9.69 18.406,2.379 14.133,1.19C9.855,0 7.039,1.379 5.551,3.817L5.551,1.19L0,1.19L0,19.758Z" style="fill:rgb(204,170,170);fill-rule:nonzero;"/>
    </g>
    <g transform="matrix(0.999995,0,0,0.999995,306.415,95.599)">
        <path d="M0,0.799C0,-9.373 -8.247,-17.62 -18.419,-17.62C-28.588,-17.62 -36.839,-9.373 -36.839,0.799C-36.839,9.099 -31.347,16.116 -23.802,18.419L-23.774,18.382C-23.774,18.382 -23.166,18.382 -22.938,17.85L-22.938,14.198C-22.938,14.198 -25.423,14.579 -26.563,14.149C-27.704,13.718 -28.515,13.084 -29.376,10.982C-30.239,8.877 -31.608,9.257 -31.759,8.496C-31.911,7.736 -30.29,8.066 -29.733,8.395C-29.173,8.724 -28.741,9.232 -28.286,9.788C-27.829,10.346 -27.198,11.919 -25.017,11.919C-25.017,11.919 -24.002,12.096 -23.521,11.868C-23.04,11.64 -22.837,11.513 -22.71,11.487C-22.71,11.487 -22.964,9.967 -21.747,8.903C-21.747,8.903 -29.705,8.776 -30.011,0.613C-30.011,0.613 -30.062,-2.834 -28.032,-4.912C-28.032,-4.912 -28.792,-7.414 -27.981,-9.712C-27.981,-9.712 -25.514,-10.015 -22.948,-7.785C-22.948,-7.785 -21.188,-8.527 -18.485,-8.527C-15.78,-8.527 -13.652,-7.751 -13.652,-7.751C-13.652,-7.751 -12.031,-9.373 -8.755,-9.745C-8.755,-9.745 -7.941,-7.887 -8.617,-5.013C-8.617,-5.013 -6.691,-3.188 -6.691,0.191C-6.691,3.57 -7.84,8.268 -15.005,8.843C-15.005,8.843 -13.789,10.466 -13.789,11.885C-13.789,13.304 -13.855,17.36 -13.855,17.36C-13.855,17.36 -13.859,18.14 -12.98,18.403C-5.461,16.083 0,9.08 0,0.799" style="fill:rgb(204,170,170);fill-rule:nonzero;"/>
    </g>
    <g transform="matrix(0.999995,0,0,0.999995,349.404,78.5878)">
        <path d="M0,34.822L0,20.59L-10.903,0L-5.836,0L-0.974,9.843C0.359,12.453 1.382,14.552 2.458,16.958L2.56,16.958C3.531,14.706 4.708,12.453 6.04,9.843L11.004,0L15.566,0L4.504,20.841L4.504,34.822L0,34.822Z" style="fill:rgb(204,170,170);fill-rule:nonzero;"/>
    </g>
    <g transform="matrix(-0.999995,0,0,0.968705,319.998,-122.989)">
        <rect x="128" y="127.998" width="64" height="64" style="fill:rgb(221,69,53);"/>
    </g>
    <g transform="matrix(0.999995,0,0,0.999995,152.607,33.8506)">
        <path d="M0,-3.696L0,0.74L7.338,0.74C7.041,2.643 5.119,6.321 0,6.321C-4.418,6.321 -8.021,2.662 -8.021,-1.848C-8.021,-6.358 -4.418,-10.016 0,-10.016C2.514,-10.016 4.195,-8.944 5.156,-8.021L8.668,-11.402C6.414,-13.509 3.493,-14.785 0,-14.785C-7.152,-14.785 -12.937,-8.999 -12.937,-1.848C-12.937,5.304 -7.152,11.089 0,11.089C7.467,11.089 12.42,5.841 12.42,-1.551C12.42,-2.402 12.326,-3.049 12.217,-3.696L0,-3.696Z" style="fill:rgb(243,244,245);fill-rule:nonzero;"/>
    </g>
    <g transform="matrix(0.999995,0,0,0.999995,180.327,33.8526)">
        <path d="M0,-3.698L-3.695,-3.698L-3.695,-7.393L-7.392,-7.393L-7.392,-3.698L-11.088,-3.698L-11.088,-0.001L-7.392,-0.001L-7.392,3.695L-3.695,3.695L-3.695,-0.001L0,-0.001L0,-3.698Z" style="fill:rgb(243,244,245);fill-rule:nonzero;"/>
    </g>
    <g transform="matrix(0.999995,0,0,0.999995,152.607,97.8449)">
        <path d="M0,-3.695L0,0.741L7.338,0.741C7.041,2.644 5.119,6.321 0,6.321C-4.418,6.321 -8.021,2.662 -8.021,-1.847C-8.021,-6.357 -4.418,-10.015 0,-10.015C2.514,-10.015 4.195,-8.943 5.156,-8.02L8.668,-11.402C6.414,-13.508 3.493,-14.785 0,-14.785C-7.152,-14.785 -12.937,-8.999 -12.937,-1.847C-12.937,5.305 -7.152,11.09 0,11.09C7.467,11.09 12.42,5.841 12.42,-1.55C12.42,-2.401 12.326,-3.049 12.217,-3.695L0,-3.695Z" style="fill:rgb(204,170,170);fill-rule:nonzero;"/>
    </g>
    <g transform="matrix(0.999995,0,0,0.999995,180.327,97.8479)">
        <path d="M0,-3.698L-3.695,-3.698L-3.695,-7.393L-7.392,-7.393L-7.392,-3.698L-11.088,-3.698L-11.088,-0.002L-7.392,-0.002L-7.392,3.695L-3.695,3.695L-3.695,-0.002L0,-0.002L0,-3.698Z" style="fill:rgb(204,170,170);fill-rule:nonzero;"/>
    </g>
    <g transform="matrix(-0.999995,0,0,0.968705,831.994,-122.995)">
        <rect x="383.999" y="128.001" width="64" height="64" style="fill:rgb(128,130,133);"/>
    </g>
    <g transform="matrix(0.999995,0,0,0.999995,426.091,35.4291)">
        <path d="M0,16.039L-25.367,16.039L-25.367,0.123L-22.809,0.123L-22.809,13.476L-2.563,13.476L-2.563,0L0,0L0,16.039Z" style="fill:white;fill-rule:nonzero;"/>
    </g>
    <g transform="matrix(0.999995,0,0,0.999995,-5.20831e-06,-102.723)">
        <rect x="405.448" y="145.716" width="15.43" height="3.293" style="fill:white;"/>
    </g>
    <g transform="matrix(0.0819029,-0.996635,-0.996635,-0.0819029,413.708,47.586)">
        <path d="M6.223,8.676L9.556,8.676L9.418,-6.756L6.082,-6.724L6.223,8.676Z" style="fill:white;fill-rule:nonzero;"/>
    </g>
    <g transform="matrix(0.258206,-0.966084,-0.966084,-0.258206,411.918,41.5457)">
        <path d="M6.231,7.228L9.542,7.228L9.445,-8.107L6.11,-8.144L6.231,7.228Z" style="fill:white;fill-rule:nonzero;"/>
    </g>
    <g transform="matrix(0.525105,-0.851032,-0.851032,-0.525105,410.609,33.3039)">
        <path d="M5.743,5.168L9.002,5.168L9.393,-10.211L6.004,-10.296L5.743,5.168Z" style="fill:white;fill-rule:nonzero;"/>
    </g>
    <g transform="matrix(0.827702,-0.561159,-0.561159,-0.827702,414.022,21.7195)">
        <path d="M4.002,2.272L7.315,2.272L7.383,-13.06L4.111,-13.05L4.002,2.272Z" style="fill:white;fill-rule:nonzero;"/>
    </g>
    <g transform="matrix(0.985789,-0.167956,-0.167956,-0.985789,424.237,13.6765)">
        <path d="M1.265,0.388L4.546,0.388L4.587,-14.96L1.34,-14.966L1.265,0.388Z" style="fill:white;fill-rule:nonzero;"/>
    </g>
    <g transform="matrix(0.999995,0,0,0.999995,426.091,99.4283)">
        <path d="M0,16.039L-25.367,16.039L-25.367,0.123L-22.809,0.123L-22.809,13.476L-2.563,13.476L-2.563,0L0,0L0,16.039Z" style="fill:rgb(204,170,170);fill-rule:nonzero;"/>
    </g>
    <g transform="matrix(0.999995,0,0,0.999995,-5.20831e-06,25.2739)">
        <rect x="405.448" y="81.717" width="15.43" height="3.293" style="fill:rgb(204,170,170);"/>
    </g>
    <g transform="matrix(0.0819029,-0.996635,-0.996635,-0.0819029,413.708,111.585)">
        <path d="M6.223,8.676L9.556,8.676L9.418,-6.756L6.082,-6.724L6.223,8.676Z" style="fill:rgb(204,170,170);fill-rule:nonzero;"/>
    </g>
    <g transform="matrix(0.258206,-0.966084,-0.966084,-0.258206,411.918,105.545)">
        <path d="M6.231,7.228L9.542,7.228L9.445,-8.107L6.11,-8.144L6.231,7.228Z" style="fill:rgb(204,170,170);fill-rule:nonzero;"/>
    </g>
    <g transform="matrix(0.525105,-0.851032,-0.851032,-0.525105,410.609,97.3031)">
        <path d="M5.743,5.168L9.002,5.168L9.393,-10.211L6.004,-10.296L5.743,5.168Z" style="fill:rgb(204,170,170);fill-rule:nonzero;"/>
    </g>
    <g transform="matrix(0.827702,-0.561159,-0.561159,-0.827702,414.022,85.7187)">
        <path d="M4.002,2.272L7.315,2.272L7.383,-13.06L4.111,-13.05L4.002,2.272Z" style="fill:rgb(204,170,170);fill-rule:nonzero;"/>
    </g>
    <g transform="matrix(0.985789,-0.167956,-0.167956,-0.985789,424.237,77.6756)">
        <path d="M1.265,0.388L4.546,0.388L4.587,-14.96L1.34,-14.966L1.265,0.388Z" style="fill:rgb(204,170,170);fill-rule:nonzero;"/>
    </g>
    <g transform="matrix(-1.01566,0,0,0.968705,968.016,-122.995)">
        <rect x="448" y="128.001" width="64" height="64" style="fill:rgb(250,162,31);"/>
    </g>
    <g transform="matrix(0.999995,0,0,0.999995,474.185,42.2273)">
        <path d="M0,0.001C0,2.413 -1.957,4.367 -4.367,4.367C-6.781,4.367 -8.734,2.413 -8.734,0.001C-8.734,-2.41 -6.781,-4.366 -4.367,-4.366C-1.957,-4.366 0,-2.41 0,0.001" style="fill:white;fill-rule:nonzero;"/>
    </g>
    <g transform="matrix(0.999995,0,0,0.999995,484.951,27.0967)">
        <path d="M0,19.498L-4.664,19.498C-4.664,11.457 -11.461,4.663 -19.5,4.663L-19.5,0C-14.309,0 -9.408,2.053 -5.703,5.783C-2.027,9.487 0,14.358 0,19.498" style="fill:white;fill-rule:nonzero;"/>
    </g>
    <g transform="matrix(0.999995,0,0,0.999995,494.542,17.4037)">
        <path d="M0,29.191L-4.666,29.191C-4.666,15.896 -15.85,4.664 -29.092,4.664L-29.092,0C-25.166,0 -21.354,0.787 -17.748,2.339C-14.299,3.831 -11.188,5.958 -8.51,8.662C-5.848,11.354 -3.752,14.478 -2.287,17.943C-0.77,21.531 0,25.315 0,29.191" style="fill:white;fill-rule:nonzero;"/>
    </g>
    <g transform="matrix(0.999995,0,0,0.999995,474.185,106.228)">
        <path d="M0,0C0,2.411 -1.957,4.366 -4.367,4.366C-6.781,4.366 -8.734,2.411 -8.734,0C-8.734,-2.41 -6.781,-4.366 -4.367,-4.366C-1.957,-4.366 0,-2.41 0,0" style="fill:rgb(204,170,170);fill-rule:nonzero;"/>
    </g>
    <g transform="matrix(0.999995,0,0,0.999995,484.951,91.0972)">
        <path d="M0,19.497L-4.664,19.497C-4.664,11.457 -11.461,4.662 -19.5,4.662L-19.5,0C-14.309,0 -9.408,2.053 -5.703,5.782C-2.027,9.486 0,14.357 0,19.497" style="fill:rgb(204,170,170);fill-rule:nonzero;"/>
    </g>
    <g transform="matrix(0.999995,0,0,0.999995,494.542,81.4043)">
        <path d="M0,29.19L-4.666,29.19C-4.666,15.895 -15.85,4.664 -29.092,4.664L-29.092,0C-25.166,0 -21.354,0.787 -17.748,2.339C-14.299,3.831 -11.188,5.958 -8.51,8.662C-5.848,11.353 -3.752,14.477 -2.287,17.943C-0.77,21.531 0,25.314 0,29.19" style="fill:rgb(204,170,170);fill-rule:nonzero;"/>
    </g>
    <g transform="matrix(-0.999995,0,0,0.999995,1087.99,-127.998)">
        <rect x="512" y="128" width="64" height="64" style="fill:rgb(199,200,201);"/>
    </g>
    <g transform="matrix(-0.999995,0,0,0.999995,1087.99,-0.000999995)">
        <rect x="512" y="64.001" width="64" height="64" style="fill:rgb(199,200,201);"/>
    </g>
    <g transform="matrix(0.999995,0,0,0.999995,15.7426,174.445)">
        <path d="M0,-28.399C0,-28.399 5.798,-20.713 15.874,-20.182C15.874,-20.182 14.51,-24.721 18.693,-28.194C22.877,-31.67 28.053,-28.727 29.045,-27.415C29.045,-27.415 31.988,-27.876 34.043,-29.258C34.043,-29.258 33.371,-26.604 30.889,-25.006C30.889,-25.006 33.795,-25.393 35.143,-26.174C35.143,-26.174 33.725,-23.905 31.279,-22.169C31.279,-22.169 32.307,-12.579 24.064,-4.655C15.821,3.271 2.26,1.621 -2.632,-2.526C-2.632,-2.526 4.015,-1.782 8.694,-5.772C8.694,-5.772 3.164,-5.878 1.57,-11.038C1.57,-11.038 4.334,-10.823 4.813,-11.354C4.813,-11.354 -1.143,-12.792 -1.195,-19.012C-1.195,-19.012 0.612,-18.108 2.26,-18.055C2.26,-18.055 -3.482,-22.204 0,-28.399" style="fill:rgb(182,190,194);fill-rule:nonzero;"/>
    </g>
    <g transform="matrix(0.999995,0,0,0.999995,86.3887,164.542)">
        <path d="M0,-9.494L5.691,-9.494L5.691,-14.768C5.691,-14.768 5.451,-18.216 8.068,-20.832C10.684,-23.448 14.205,-23.199 19.219,-22.764L19.219,-16.876L15.512,-16.876C15.512,-16.876 13.955,-16.908 13.223,-16.067C12.492,-15.225 12.57,-14.026 12.57,-13.73L12.57,-9.494L19,-9.494L18.176,-2.936L12.537,-2.936L12.537,13.954L5.715,13.954L5.715,-2.969L0,-2.969L0,-9.494Z" style="fill:rgb(182,190,194);fill-rule:nonzero;"/>
    </g>
    <g transform="matrix(0.999995,0,0,0.999995,216.743,149.454)">
        <path d="M0,0.002C0,1.854 -1.5,3.354 -3.352,3.354C-5.203,3.354 -6.703,1.854 -6.703,0.002C-6.703,-1.85 -5.203,-3.352 -3.352,-3.352C-1.5,-3.352 0,-1.85 0,0.002" style="fill:rgb(182,190,194);fill-rule:nonzero;"/>
    </g>
    <g transform="matrix(-0.999995,0,0,0.999995,426.737,137.234)">
        <rect x="210.475" y="18.099" width="5.789" height="18.568" style="fill:rgb(182,190,194);"/>
    </g>
    <g transform="matrix(0.999995,0,0,0.999995,219.891,154.144)">
        <path d="M0,19.758L5.766,19.758L5.766,10.178C5.766,10.178 5.551,5.846 9.016,5.846C12.48,5.846 12.238,9.121 12.238,10.203L12.238,19.758L18.055,19.758L18.055,9.69C18.055,9.69 18.406,2.379 14.133,1.19C9.855,0 7.039,1.379 5.551,3.817L5.551,1.19L0,1.19L0,19.758Z" style="fill:rgb(182,190,194);fill-rule:nonzero;"/>
    </g>
    <g transform="matrix(0.999995,0,0,0.999995,306.412,159.599)">
        <path d="M0,0.799C0,-9.373 -8.246,-17.62 -18.418,-17.62C-28.588,-17.62 -36.838,-9.373 -36.838,0.799C-36.838,9.099 -31.346,16.116 -23.801,18.419L-23.773,18.382C-23.773,18.382 -23.166,18.382 -22.937,17.85L-22.937,14.198C-22.937,14.198 -25.422,14.579 -26.562,14.149C-27.703,13.718 -28.514,13.084 -29.375,10.982C-30.238,8.877 -31.607,9.257 -31.758,8.496C-31.91,7.736 -30.289,8.066 -29.732,8.395C-29.172,8.724 -28.74,9.232 -28.285,9.788C-27.828,10.346 -27.197,11.919 -25.016,11.919C-25.016,11.919 -24.002,12.096 -23.52,11.868C-23.039,11.64 -22.836,11.513 -22.709,11.487C-22.709,11.487 -22.963,9.967 -21.746,8.903C-21.746,8.903 -29.705,8.776 -30.01,0.613C-30.01,0.613 -30.061,-2.834 -28.031,-4.912C-28.031,-4.912 -28.791,-7.414 -27.98,-9.712C-27.98,-9.712 -25.514,-10.015 -22.947,-7.785C-22.947,-7.785 -21.187,-8.527 -18.484,-8.527C-15.779,-8.527 -13.652,-7.751 -13.652,-7.751C-13.652,-7.751 -12.031,-9.373 -8.754,-9.745C-8.754,-9.745 -7.941,-7.887 -8.617,-5.013C-8.617,-5.013 -6.691,-3.188 -6.691,0.191C-6.691,3.57 -7.84,8.268 -15.004,8.843C-15.004,8.843 -13.789,10.466 -13.789,11.885C-13.789,13.304 -13.855,17.36 -13.855,17.36C-13.855,17.36 -13.859,18.14 -12.98,18.403C-5.461,16.083 0,9.08 0,0.799" style="fill:rgb(182,190,194);fill-rule:nonzero;"/>
    </g>
    <g transform="matrix(0.999995,0,0,0.999995,349.402,142.587)">
        <path d="M0,34.822L0,20.59L-10.904,0L-5.836,0L-0.975,9.843C0.359,12.453 1.381,14.552 2.457,16.958L2.559,16.958C3.531,14.706 4.707,12.453 6.039,9.843L11.004,0L15.566,0L4.504,20.841L4.504,34.822L0,34.822Z" style="fill:rgb(182,190,194);fill-rule:nonzero;"/>
    </g>
    <g transform="matrix(0.999995,0,0,0.999995,152.605,161.845)">
        <path d="M0,-3.695L0,0.741L7.338,0.741C7.041,2.644 5.119,6.321 0,6.321C-4.418,6.321 -8.021,2.662 -8.021,-1.847C-8.021,-6.357 -4.418,-10.015 0,-10.015C2.514,-10.015 4.195,-8.943 5.156,-8.02L8.668,-11.402C6.414,-13.508 3.492,-14.785 0,-14.785C-7.152,-14.785 -12.938,-8.999 -12.938,-1.847C-12.938,5.305 -7.152,11.09 0,11.09C7.467,11.09 12.42,5.841 12.42,-1.55C12.42,-2.401 12.326,-3.049 12.217,-3.695L0,-3.695Z" style="fill:rgb(182,190,194);fill-rule:nonzero;"/>
    </g>
    <g transform="matrix(0.999995,0,0,0.999995,180.325,161.848)">
        <path d="M0,-3.698L-3.695,-3.698L-3.695,-7.393L-7.393,-7.393L-7.393,-3.698L-11.088,-3.698L-11.088,-0.002L-7.393,-0.002L-7.393,3.695L-3.695,3.695L-3.695,-0.002L0,-0.002L0,-3.698Z" style="fill:rgb(182,190,194);fill-rule:nonzero;"/>
    </g>
    <g transform="matrix(0.999995,0,0,0.999995,426.088,163.428)">
        <path d="M0,16.039L-25.367,16.039L-25.367,0.123L-22.809,0.123L-22.809,13.476L-2.563,13.476L-2.563,0L0,0L0,16.039Z" style="fill:rgb(182,190,194);fill-rule:nonzero;"/>
    </g>
    <g transform="matrix(0.999995,0,0,0.999995,-5.20831e-06,153.273)">
        <rect x="405.445" y="17.717" width="15.43" height="3.293" style="fill:rgb(182,190,194);"/>
    </g>
    <g transform="matrix(0.0819029,-0.996635,-0.996635,-0.0819029,413.705,175.585)">
        <path d="M6.223,8.676L9.556,8.676L9.418,-6.756L6.082,-6.724L6.223,8.676Z" style="fill:rgb(182,190,194);fill-rule:nonzero;"/>
    </g>
    <g transform="matrix(0.258206,-0.966084,-0.966084,-0.258206,411.915,169.545)">
        <path d="M6.231,7.228L9.542,7.228L9.445,-8.107L6.11,-8.144L6.231,7.228Z" style="fill:rgb(182,190,194);fill-rule:nonzero;"/>
    </g>
    <g transform="matrix(0.525105,-0.851032,-0.851032,-0.525105,410.606,161.303)">
        <path d="M5.743,5.168L9.002,5.168L9.393,-10.211L6.004,-10.296L5.743,5.168Z" style="fill:rgb(182,190,194);fill-rule:nonzero;"/>
    </g>
    <g transform="matrix(0.827702,-0.561159,-0.561159,-0.827702,414.019,149.718)">
        <path d="M4.002,2.272L7.315,2.272L7.383,-13.06L4.111,-13.05L4.002,2.272Z" style="fill:rgb(182,190,194);fill-rule:nonzero;"/>
    </g>
    <g transform="matrix(0.985789,-0.167956,-0.167956,-0.985789,424.234,141.675)">
        <path d="M1.265,0.388L4.546,0.388L4.587,-14.96L1.34,-14.966L1.265,0.388Z" style="fill:rgb(182,190,194);fill-rule:nonzero;"/>
    </g>
    <g transform="matrix(0.999995,0,0,0.999995,474.183,170.228)">
        <path d="M0,0C0,2.411 -1.957,4.366 -4.367,4.366C-6.781,4.366 -8.734,2.411 -8.734,0C-8.734,-2.41 -6.781,-4.366 -4.367,-4.366C-1.957,-4.366 0,-2.41 0,0" style="fill:rgb(182,190,194);fill-rule:nonzero;"/>
    </g>
    <g transform="matrix(0.999995,0,0,0.999995,484.949,155.097)">
        <path d="M0,19.497L-4.664,19.497C-4.664,11.457 -11.461,4.662 -19.5,4.662L-19.5,0C-14.309,0 -9.408,2.053 -5.703,5.782C-2.027,9.486 0,14.357 0,19.497" style="fill:rgb(182,190,194);fill-rule:nonzero;"/>
    </g>
    <g transform="matrix(0.999995,0,0,0.999995,494.54,145.404)">
        <path d="M0,29.19L-4.666,29.19C-4.666,15.895 -15.85,4.664 -29.092,4.664L-29.092,0C-25.166,0 -21.354,0.787 -17.748,2.339C-14.299,3.831 -11.188,5.958 -8.51,8.662C-5.848,11.353 -3.752,14.477 -2.287,17.943C-0.77,21.531 0,25.314 0,29.19" style="fill:rgb(182,190,194);fill-rule:nonzero;"/>
    </g>
    <g transform="matrix(-0.999995,0,0,0.999995,1087.99,127.998)">
        <rect x="512" y="0.001" width="64" height="64" style="fill:rgb(199,200,201);"/>
    </g>
</svg>
