<?xml version="1.0" encoding="utf-8" standalone="no"?>
<!DOCTYPE svg PUBLIC "-//W3C//DTD SVG 1.1//EN"
  "http://www.w3.org/Graphics/SVG/1.1/DTD/svg11.dtd">
<!-- Created with matplotlib (https://matplotlib.org/) -->
<svg height="193.76pt" version="1.1" viewBox="0 0 198.8 193.76" width="198.8pt" xmlns="http://www.w3.org/2000/svg" xmlns:xlink="http://www.w3.org/1999/xlink">
 <defs>
  <style type="text/css">
*{stroke-linecap:butt;stroke-linejoin:round;white-space:pre;}
  </style>
 </defs>
 <g id="figure_1">
  <g id="patch_1">
   <path d="M 0 193.76 
L 198.8 193.76 
L 198.8 0 
L 0 0 
z
" style="fill:#ffffff;"/>
  </g>
  <g id="axes_1">
   <g id="patch_2">
    <path d="M 3.5 190.26 
L 198.8 190.26 
L 198.8 0 
L 3.5 0 
z
" style="fill:#f1eaea;"/>
   </g>
   <g id="matplotlib.axis_1"/>
   <g id="matplotlib.axis_2"/>
   <g id="line2d_1">
    <defs>
     <path d="M 0 3 
C 0.795609 3 1.55874 2.683901 2.12132 2.12132 
C 2.683901 1.55874 3 0.795609 3 0 
C 3 -0.795609 2.683901 -1.55874 2.12132 -2.12132 
C 1.55874 -2.683901 0.795609 -3 0 -3 
C -0.795609 -3 -1.55874 -2.683901 -2.12132 -2.12132 
C -2.683901 -1.55874 -3 -0.795609 -3 0 
C -3 0.795609 -2.683901 1.55874 -2.12132 2.12132 
C -1.55874 2.683901 -0.795609 3 0 3 
z
" id="mbc1d1ec265" style="stroke:#000000;"/>
    </defs>
    <g clip-path="url(#p2bb5ee6515)">
     <use style="stroke:#000000;" x="12.377273" xlink:href="#mbc1d1ec265" y="165.078156"/>
     <use style="stroke:#000000;" x="32.104545" xlink:href="#mbc1d1ec265" y="154.466591"/>
     <use style="stroke:#000000;" x="51.831818" xlink:href="#mbc1d1ec265" y="117.996211"/>
     <use style="stroke:#000000;" x="71.559091" xlink:href="#mbc1d1ec265" y="121.36704"/>
     <use style="stroke:#000000;" x="91.286364" xlink:href="#mbc1d1ec265" y="102.458678"/>
     <use style="stroke:#000000;" x="111.013636" xlink:href="#mbc1d1ec265" y="75.419121"/>
     <use style="stroke:#000000;" x="130.740909" xlink:href="#mbc1d1ec265" y="77.391175"/>
     <use style="stroke:#000000;" x="150.468182" xlink:href="#mbc1d1ec265" y="58.805569"/>
     <use style="stroke:#000000;" x="170.195455" xlink:href="#mbc1d1ec265" y="36.841793"/>
     <use style="stroke:#000000;" x="189.922727" xlink:href="#mbc1d1ec265" y="24.366964"/>
    </g>
   </g>
   <g id="patch_3">
    <path d="M 3.5 190.26 
L 3.5 -0 
" style="fill:none;"/>
   </g>
   <g id="patch_4">
    <path d="M 198.8 190.26 
L 198.8 -0 
" style="fill:none;"/>
   </g>
   <g id="patch_5">
    <path d="M 3.5 190.26 
L 198.8 190.26 
" style="fill:none;"/>
   </g>
   <g id="patch_6">
    <path d="M 3.5 0 
L 198.8 0 
" style="fill:none;"/>
   </g>
  </g>
 </g>
 <defs>
  <clipPath id="p2bb5ee6515">
   <rect height="190.26" width="195.3" x="3.5" y="0"/>
  </clipPath>
 </defs>
</svg>
