<?xml version="1.0" encoding="UTF-8" standalone="no"?>
<!DOCTYPE svg PUBLIC "-//W3C//DTD SVG 1.1//EN" "http://www.w3.org/Graphics/SVG/1.1/DTD/svg11.dtd">
<svg width="100%" height="100%" viewBox="0 0 640 500" version="1.1" xmlns="http://www.w3.org/2000/svg" xmlns:xlink="http://www.w3.org/1999/xlink" xml:space="preserve" xmlns:serif="http://www.serif.com/" style="fill-rule:evenodd;clip-rule:evenodd;stroke-linejoin:round;stroke-miterlimit:1.41421;">
    <g transform="matrix(-1,0,0,1,640,-1300)">
        <path d="M416,1607.34C416,1607.34 384,1551.92 384,1551.92L448,1551.92L416,1607.34L480,1607.34C480,1607.34 448,1551.92 448,1551.92L512,1551.92C512,1551.92 544,1607.34 544,1607.34L608,1607.34L640,1551.92L640,1800L335.23,1800L320,1773.62L304.77,1800L175.23,1800L191.23,1772.29L127.23,1772.29L143.23,1800L0,1800L0,1607.34L352,1607.34L384,1551.92L416,1607.34ZM96,1718.19L64,1662.77L128,1662.77L96,1718.19ZM544,1718.19L512,1662.77L480,1718.19L544,1718.19ZM160,1607.34L128,1551.92L192,1551.92L160,1607.34ZM288,1496.49L256,1441.07L320,1441.07L288,1496.49L352,1496.49L384,1441.07L416,1496.49L352,1496.49L320,1551.92L288,1496.49L256,1551.92L288,1607.34L224,1607.34C224,1607.34 160,1607.34 160,1607.34L192,1551.92L224,1607.34L256,1551.92C256,1551.92 192,1551.92 192,1551.92L224,1496.49C224,1496.49 288,1496.49 288,1496.49ZM96,1607.34L64,1551.92L128,1551.92L96,1607.34ZM352,1607.34L288,1607.34L320,1551.92L352,1607.34ZM469.608,1601.34L426.392,1601.34L448,1563.92L469.608,1601.34ZM586.392,1557.92L629.608,1557.92L608,1595.34L586.392,1557.92ZM330.392,1557.92L373.608,1557.92L352,1595.34L343.862,1581.25L330.392,1557.92ZM202.392,1557.92L245.608,1557.92L224,1595.34L202.392,1557.92ZM459.215,1595.34L448,1575.92L436.785,1595.34L459.215,1595.34ZM619.215,1563.92L596.785,1563.92L608,1583.34L619.215,1563.92ZM363.215,1563.92L340.785,1563.92L352,1583.34L363.215,1563.92ZM235.215,1563.92L212.785,1563.92L224,1583.34L235.215,1563.92ZM192,1551.92L160,1496.49L224,1496.49L192,1551.92ZM448,1551.92L384,1551.92L416,1496.49L448,1551.92ZM629.608,1545.92L586.392,1545.92L608,1508.49L629.608,1545.92ZM181.608,1545.92L138.392,1545.92L160,1508.49L181.608,1545.92ZM490.392,1502.49L533.608,1502.49L512,1539.92L490.392,1502.49ZM619.215,1539.92L608,1520.49L596.785,1539.92L619.215,1539.92ZM171.215,1539.92L160,1520.49L148.785,1539.92L171.215,1539.92ZM523.215,1508.49L500.785,1508.49L512,1527.92L523.215,1508.49ZM608,1496.49L544,1496.49L576,1441.07L608,1496.49ZM480,1496.49L416,1496.49L448,1441.07L480,1496.49ZM74.392,1447.07L117.608,1447.07L96,1484.49L74.392,1447.07ZM522.392,1447.07L565.608,1447.07L544,1484.49L522.392,1447.07ZM107.215,1453.07L84.785,1453.07L96,1472.49L107.215,1453.07ZM555.215,1453.07L532.785,1453.07L544,1472.49L555.215,1453.07ZM234.392,1391.64L277.608,1391.64L256,1429.07L234.392,1391.64ZM267.215,1397.64L244.785,1397.64L256,1417.07L267.215,1397.64ZM533.608,1379.64L490.392,1379.64L512,1342.21L533.608,1379.64ZM523.215,1373.64L512,1354.21L500.785,1373.64L523.215,1373.64Z" style="fill:rgb(122,138,135);"/>
    </g>
</svg>
